<svg xmlns="http://www.w3.org/2000/svg" viewBox="0 0 16 16" fill="#fff"><path d="M6.668 5.443a.502.502 0 0 1-.354-.146l-1.48-1.48-1.481 1.48a.5.5 0 0 1-.707-.707L4.48 2.756a.5.5 0 0 1 .707 0L7.022 4.59a.5.5 0 0 1-.354.853z"/><path d="M4.834 13.391a.5.5 0 0 1-.5-.5V3.678a.5.5 0 0 1 1 0v9.213a.5.5 0 0 1-.5.5zM11.166 13.391a.502.502 0 0 1-.354-.146L8.978 11.41a.5.5 0 0 1 .707-.707l1.48 1.48 1.481-1.48a.5.5 0 0 1 .707.707l-1.834 1.834a.498.498 0 0 1-.353.147z"/><path d="M11.166 12.822a.5.5 0 0 1-.5-.5V3.109a.5.5 0 0 1 1 0v9.213a.5.5 0 0 1-.5.5z"/></svg>