<svg xmlns="http://www.w3.org/2000/svg" viewBox="0 0 750 500"><g id="freepik--background-simple--inject-3"><path d="M692.41,136.84c-13-20.68-29.06-39.37-48.52-54.7-66.9-52.7-167-57.37-245.3-30.53-23.14,7.93-45.23,19.21-64.12,34.88-13.73,11.39-25.49,24.93-39.18,36.37-14.38,12-32.16,12.28-50.22,11.28q-39-2.16-77.81-6.59c-22.54-2.58-43.77-6.8-66.1-.58C63.46,137.5,33.58,170.34,22,207.14c-14.5,46.22-4.58,97.12,15.38,141.26,6.91,15.28,15.21,30.2,18.81,46.64,3.74,17.09,11.29,34.55,24,47.24,14.85,14.77,38,19.93,58.09,23.74,38.87,7.4,78.86,3.31,117-6,36-8.76,72.69-23.9,110.57-24.16,42.5-.28,82.91,17.09,124.68,24.93,37.38,7,76.05,6.65,113.46,0,33.94-6,71-15.62,95.89-41,65.82-67.06,43.57-179.61,7.26-255.64A266.66,266.66,0,0,0,692.41,136.84Z" style="fill:#407BFF"></path><path d="M692.41,136.84c-13-20.68-29.06-39.37-48.52-54.7-66.9-52.7-167-57.37-245.3-30.53-23.14,7.93-45.23,19.21-64.12,34.88-13.73,11.39-25.49,24.93-39.18,36.37-14.38,12-32.16,12.28-50.22,11.28q-39-2.16-77.81-6.59c-22.54-2.58-43.77-6.8-66.1-.58C63.46,137.5,33.58,170.34,22,207.14c-14.5,46.22-4.58,97.12,15.38,141.26,6.91,15.28,15.21,30.2,18.81,46.64,3.74,17.09,11.29,34.55,24,47.24,14.85,14.77,38,19.93,58.09,23.74,38.87,7.4,78.86,3.31,117-6,36-8.76,72.69-23.9,110.57-24.16,42.5-.28,82.91,17.09,124.68,24.93,37.38,7,76.05,6.65,113.46,0,33.94-6,71-15.62,95.89-41,65.82-67.06,43.57-179.61,7.26-255.64A266.66,266.66,0,0,0,692.41,136.84Z" style="fill:#fff;opacity:0.7000000000000001"></path></g><g id="freepik--Clouds--inject-3"><path d="M441.65,26s-7.55-12.35-19.22-11.67S406.65,22.53,403.22,28s-4.8,2.05-13.72-.69-13,2.06-15.1,6.86-1.37,1.37-9.6,0-8.45,3.54-13.73,6.18c-4.3,2.15-5.22,2.24-10,1-5.93-1.6-7.87-.27-9.24,2.48H471.05s-2.64-11-8.82-13.73S447.82,32.82,441.65,26Z" style="fill:none;stroke:#000;stroke-miterlimit:10;opacity:0.30000000000000004"></path><path d="M196.19,53.46S192,46.59,185.49,47s-8.78,4.58-10.69,7.64-2.67,1.14-7.64-.38-7.25,1.14-8.4,3.82-.76.76-5.35,0-4.69,2-7.63,3.43c-2.4,1.2-2.91,1.25-5.55.53-3.3-.89-4.38-.15-5.15,1.38h77.47s-1.47-6.11-4.91-7.64S199.62,57.28,196.19,53.46Z" style="fill:none;stroke:#000;stroke-miterlimit:10;opacity:0.30000000000000004"></path><path d="M719.4,132.05s-2.19-3.58-5.57-3.38-4.57,2.39-5.57,4-1.39.59-4-.2a3.22,3.22,0,0,0-4.37,2c-.6,1.39-.4.4-2.79,0s-2.45,1-4,1.79a3,3,0,0,1-2.89.27c-1.72-.46-2.28-.07-2.68.72h40.35s-.76-3.18-2.55-4S721.19,134,719.4,132.05Z" style="fill:none;stroke:#000;stroke-miterlimit:10;opacity:0.30000000000000004"></path><path d="M463.39,57.45s-2.19-3.58-5.57-3.38-4.58,2.38-5.57,4-1.4.59-4-.2a3.22,3.22,0,0,0-4.38,2c-.59,1.39-.4.39-2.78,0s-2.45,1-4,1.79a3,3,0,0,1-2.89.27c-1.72-.46-2.28-.07-2.68.72h40.35s-.76-3.18-2.55-4S465.18,59.44,463.39,57.45Z" style="fill:none;stroke:#000;stroke-miterlimit:10;opacity:0.30000000000000004"></path></g><g id="freepik--Train--inject-3"><rect x="267.47" y="254.68" width="5.94" height="26.47" style="fill:#263238;stroke:#263238;stroke-miterlimit:10"></rect><rect x="486.64" y="254.68" width="5.94" height="26.47" style="fill:#263238;stroke:#263238;stroke-miterlimit:10"></rect><polygon points="41.05 282.31 38.98 286.86 69.34 286.86 69.34 285.85 52.4 285.68 41.05 282.31" style="fill:#263238;stroke:#263238;stroke-miterlimit:10"></polygon><path d="M267.47,248.25v37.6H55.33a26,26,0,0,1-8.82-1.55L31.89,279a5.2,5.2,0,0,1-.12-9.25l22.39-12.68a59.38,59.38,0,0,1,27.3-7Z" style="fill:#fff;stroke:#263238;stroke-miterlimit:10"></path><path d="M29.82,277.12A5,5,0,0,0,31.89,279l14.62,5.32a26,26,0,0,0,8.82,1.55H267.47v-8.73Z" style="fill:#407BFF;stroke:#263238;stroke-miterlimit:10"></path><path d="M100.26,281.15H72.8a4.69,4.69,0,0,0-4.7,4.7H105A4.7,4.7,0,0,0,100.26,281.15Z" style="fill:#263238;stroke:#263238;stroke-miterlimit:10"></path><circle cx="75.52" cy="285.85" r="4.7" style="fill:#263238;stroke:#263238;stroke-miterlimit:10"></circle><path d="M105,285.85a4.7,4.7,0,1,0-4.7,4.7A4.7,4.7,0,0,0,105,285.85Z" style="fill:#263238;stroke:#263238;stroke-miterlimit:10"></path><path d="M247.93,281.15H220.47a4.7,4.7,0,0,0-4.7,4.7h36.86A4.69,4.69,0,0,0,247.93,281.15Z" style="fill:#263238;stroke:#263238;stroke-miterlimit:10"></path><circle cx="223.2" cy="285.85" r="4.7" style="fill:#263238;stroke:#263238;stroke-miterlimit:10"></circle><circle cx="247.93" cy="285.85" r="4.7" style="fill:#263238;stroke:#263238;stroke-miterlimit:10"></circle><polygon points="267.47 272 267.47 258.14 90.36 258.14 66.12 272 267.47 272" style="fill:#407BFF;stroke:#263238;stroke-miterlimit:10"></polygon><rect x="120.79" y="260.37" width="133.82" height="9.4" style="fill:#263238;stroke:#263238;stroke-miterlimit:10"></rect><rect x="153.19" y="261.61" width="12.24" height="6.93" style="fill:#fff;stroke:#263238;stroke-miterlimit:10"></rect><rect x="172.86" y="261.61" width="12.24" height="6.93" style="fill:#fff;stroke:#263238;stroke-miterlimit:10"></rect><rect x="192.53" y="261.61" width="12.24" height="6.93" style="fill:#fff;stroke:#263238;stroke-miterlimit:10"></rect><rect x="212.2" y="261.61" width="12.24" height="6.93" style="fill:#fff;stroke:#263238;stroke-miterlimit:10"></rect><rect x="231.87" y="261.61" width="12.24" height="6.93" style="fill:#fff;stroke:#263238;stroke-miterlimit:10"></rect><path d="M66.12,259.38,80.22,253H63.83a58.57,58.57,0,0,0-9.67,4.1L44.7,262.4l12.27-2Z" style="fill:#263238;stroke:#263238;stroke-miterlimit:10"></path><path d="M63.83,253H267.47v-4.7l-186,1.83A59.42,59.42,0,0,0,63.83,253Z" style="fill:#ccc;stroke:#263238;stroke-miterlimit:10"></path><path d="M117.65,280.09h-3.78a3.64,3.64,0,0,1-3.63-3.63v-17a3.64,3.64,0,0,1,3.63-3.64h3.78a3.64,3.64,0,0,1,3.63,3.64v17A3.64,3.64,0,0,1,117.65,280.09Zm-3.78-23.56a2.89,2.89,0,0,0-2.89,2.89v17a2.9,2.9,0,0,0,2.89,2.89h3.78a2.9,2.9,0,0,0,2.89-2.89v-17a2.89,2.89,0,0,0-2.89-2.89Z" style="fill:#fff;stroke:#263238;stroke-miterlimit:10"></path><rect x="113.24" y="261.61" width="5.04" height="8.16" style="fill:#fff;stroke:#263238;stroke-miterlimit:10"></rect><path d="M261.65,280.09h-3.78a3.64,3.64,0,0,1-3.63-3.63v-17a3.64,3.64,0,0,1,3.63-3.64h3.78a3.63,3.63,0,0,1,3.63,3.64v17A3.63,3.63,0,0,1,261.65,280.09Zm-3.78-23.56a2.89,2.89,0,0,0-2.89,2.89v17a2.9,2.9,0,0,0,2.89,2.89h3.78a2.89,2.89,0,0,0,2.89-2.89v-17a2.89,2.89,0,0,0-2.89-2.89Z" style="fill:#fff;stroke:#263238;stroke-miterlimit:10"></path><rect x="257.24" y="261.61" width="5.04" height="8.16" style="fill:#fff;stroke:#263238;stroke-miterlimit:10"></rect><rect x="90.52" y="261.61" width="5.04" height="8.16" style="fill:#fff;stroke:#263238;stroke-miterlimit:10"></rect><polygon points="718.99 282.31 721.06 286.86 690.71 286.86 690.71 285.85 707.64 285.68 718.99 282.31" style="fill:#263238;stroke:#263238;stroke-miterlimit:10"></polygon><path d="M492.57,248.25v37.6H704.71a26.06,26.06,0,0,0,8.83-1.55L728.16,279a5.21,5.21,0,0,0,.12-9.25l-22.39-12.68a59.38,59.38,0,0,0-27.3-7Z" style="fill:#fff;stroke:#263238;stroke-miterlimit:10"></path><path d="M492.57,277.12v8.73H704.72a26,26,0,0,0,8.82-1.55L728.16,279a5.08,5.08,0,0,0,2.07-1.86Z" style="fill:#407BFF;stroke:#263238;stroke-miterlimit:10"></path><path d="M659.79,281.15h27.46a4.7,4.7,0,0,1,4.7,4.7H655.09A4.7,4.7,0,0,1,659.79,281.15Z" style="fill:#263238;stroke:#263238;stroke-miterlimit:10"></path><circle cx="684.53" cy="285.85" r="4.7" style="fill:#263238;stroke:#263238;stroke-miterlimit:10"></circle><circle cx="659.79" cy="285.85" r="4.7" style="fill:#263238;stroke:#263238;stroke-miterlimit:10"></circle><path d="M512.12,281.15h27.45a4.69,4.69,0,0,1,4.7,4.7H507.42A4.69,4.69,0,0,1,512.12,281.15Z" style="fill:#263238;stroke:#263238;stroke-miterlimit:10"></path><circle cx="536.85" cy="285.85" r="4.7" style="fill:#263238;stroke:#263238;stroke-miterlimit:10"></circle><circle cx="512.12" cy="285.85" r="4.7" style="fill:#263238;stroke:#263238;stroke-miterlimit:10"></circle><polygon points="492.57 272 492.57 258.14 669.69 258.14 693.93 272 492.57 272" style="fill:#407BFF;stroke:#263238;stroke-miterlimit:10"></polygon><rect x="505.44" y="260.37" width="133.82" height="9.4" transform="translate(1144.7 530.14) rotate(180)" style="fill:#263238;stroke:#263238;stroke-miterlimit:10"></rect><rect x="594.61" y="261.61" width="12.24" height="6.93" transform="translate(1201.47 530.14) rotate(180)" style="fill:#fff;stroke:#263238;stroke-miterlimit:10"></rect><rect x="574.94" y="261.61" width="12.24" height="6.93" transform="translate(1162.13 530.14) rotate(180)" style="fill:#fff;stroke:#263238;stroke-miterlimit:10"></rect><rect x="555.27" y="261.61" width="12.24" height="6.93" transform="translate(1122.79 530.14) rotate(180)" style="fill:#fff;stroke:#263238;stroke-miterlimit:10"></rect><rect x="535.6" y="261.61" width="12.24" height="6.93" transform="translate(1083.45 530.14) rotate(180)" style="fill:#fff;stroke:#263238;stroke-miterlimit:10"></rect><rect x="515.93" y="261.61" width="12.24" height="6.93" transform="translate(1044.11 530.14) rotate(180)" style="fill:#fff;stroke:#263238;stroke-miterlimit:10"></rect><path d="M693.93,259.38,679.83,253h16.39a58.94,58.94,0,0,1,9.67,4.1l9.45,5.35-12.26-2Z" style="fill:#263238;stroke:#263238;stroke-miterlimit:10"></path><path d="M696.22,253H492.57v-4.7l186,1.83A59.42,59.42,0,0,1,696.22,253Z" style="fill:#ccc;stroke:#263238;stroke-miterlimit:10"></path><path d="M646.18,280.09H642.4a3.64,3.64,0,0,1-3.63-3.63v-17a3.64,3.64,0,0,1,3.63-3.64h3.78a3.64,3.64,0,0,1,3.63,3.64v17A3.64,3.64,0,0,1,646.18,280.09Zm-3.78-23.56a2.89,2.89,0,0,0-2.89,2.89v17a2.9,2.9,0,0,0,2.89,2.89h3.78a2.9,2.9,0,0,0,2.89-2.89v-17a2.89,2.89,0,0,0-2.89-2.89Z" style="fill:#fff;stroke:#263238;stroke-miterlimit:10"></path><rect x="641.77" y="261.61" width="5.04" height="8.16" transform="translate(1288.58 531.38) rotate(180)" style="fill:#fff;stroke:#263238;stroke-miterlimit:10"></rect><path d="M502.17,280.09H498.4a3.64,3.64,0,0,1-3.64-3.63v-17a3.64,3.64,0,0,1,3.64-3.64h3.77a3.64,3.64,0,0,1,3.64,3.64v17A3.64,3.64,0,0,1,502.17,280.09Zm-3.77-23.56a2.89,2.89,0,0,0-2.9,2.89v17a2.9,2.9,0,0,0,2.9,2.89h3.77a2.9,2.9,0,0,0,2.9-2.89v-17a2.89,2.89,0,0,0-2.9-2.89Z" style="fill:#fff;stroke:#263238;stroke-miterlimit:10"></path><rect x="497.77" y="261.61" width="5.04" height="8.16" transform="translate(1000.57 531.38) rotate(180)" style="fill:#fff;stroke:#263238;stroke-miterlimit:10"></rect><rect x="664.49" y="261.61" width="5.04" height="8.16" transform="translate(1334.02 531.38) rotate(180)" style="fill:#fff;stroke:#263238;stroke-miterlimit:10"></rect><rect x="273.41" y="248.25" width="213.23" height="37.6" style="fill:#fff;stroke:#263238;stroke-miterlimit:10"></rect><rect x="273.41" y="277.12" width="213.23" height="8.73" style="fill:#407BFF;stroke:#263238;stroke-miterlimit:10"></rect><rect x="273.41" y="258.15" width="213.23" height="13.85" style="fill:#407BFF;stroke:#263238;stroke-miterlimit:10"></rect><rect x="287.2" y="260.37" width="187.74" height="9.4" style="fill:#263238;stroke:#263238;stroke-miterlimit:10"></rect><rect x="299.69" y="261.61" width="12.24" height="6.93" style="fill:#fff;stroke:#263238;stroke-miterlimit:10"></rect><rect x="319.37" y="261.61" width="12.24" height="6.93" style="fill:#fff;stroke:#263238;stroke-miterlimit:10"></rect><rect x="339.04" y="261.61" width="12.24" height="6.93" style="fill:#fff;stroke:#263238;stroke-miterlimit:10"></rect><rect x="358.71" y="261.61" width="12.24" height="6.93" style="fill:#fff;stroke:#263238;stroke-miterlimit:10"></rect><rect x="378.38" y="261.61" width="12.24" height="6.93" style="fill:#fff;stroke:#263238;stroke-miterlimit:10"></rect><rect x="397.71" y="261.61" width="12.24" height="6.93" style="fill:#fff;stroke:#263238;stroke-miterlimit:10"></rect><rect x="417.05" y="261.61" width="12.24" height="6.93" style="fill:#fff;stroke:#263238;stroke-miterlimit:10"></rect><rect x="436.38" y="261.61" width="12.24" height="6.93" style="fill:#fff;stroke:#263238;stroke-miterlimit:10"></rect><rect x="455.72" y="261.61" width="12.24" height="6.93" style="fill:#fff;stroke:#263238;stroke-miterlimit:10"></rect><path d="M283.94,280.09h-3.78a3.63,3.63,0,0,1-3.63-3.63v-17a3.63,3.63,0,0,1,3.63-3.64h3.78a3.64,3.64,0,0,1,3.63,3.64v17A3.64,3.64,0,0,1,283.94,280.09Zm-3.78-23.56a2.89,2.89,0,0,0-2.89,2.89v17a2.89,2.89,0,0,0,2.89,2.89h3.78a2.9,2.9,0,0,0,2.89-2.89v-17a2.89,2.89,0,0,0-2.89-2.89Z" style="fill:#fff;stroke:#263238;stroke-miterlimit:10"></path><rect x="279.53" y="261.61" width="5.04" height="8.16" style="fill:#fff;stroke:#263238;stroke-miterlimit:10"></rect><path d="M482,280.09H478.2a3.64,3.64,0,0,1-3.63-3.63v-17a3.64,3.64,0,0,1,3.63-3.64H482a3.63,3.63,0,0,1,3.63,3.64v17A3.63,3.63,0,0,1,482,280.09Zm-3.78-23.56a2.89,2.89,0,0,0-2.89,2.89v17a2.9,2.9,0,0,0,2.89,2.89H482a2.89,2.89,0,0,0,2.89-2.89v-17a2.89,2.89,0,0,0-2.89-2.89Z" style="fill:#fff;stroke:#263238;stroke-miterlimit:10"></path><rect x="477.57" y="261.61" width="5.04" height="8.16" style="fill:#fff;stroke:#263238;stroke-miterlimit:10"></rect><path d="M320.29,281.15H292.83a4.69,4.69,0,0,0-4.7,4.7H325A4.7,4.7,0,0,0,320.29,281.15Z" style="fill:#263238;stroke:#263238;stroke-miterlimit:10"></path><circle cx="295.55" cy="285.85" r="4.7" style="fill:#263238;stroke:#263238;stroke-miterlimit:10"></circle><circle cx="320.29" cy="285.85" r="4.7" style="fill:#263238;stroke:#263238;stroke-miterlimit:10"></circle><path d="M468.45,281.15H441a4.69,4.69,0,0,0-4.7,4.7h36.85A4.69,4.69,0,0,0,468.45,281.15Z" style="fill:#263238;stroke:#263238;stroke-miterlimit:10"></path><circle cx="443.72" cy="285.85" r="4.7" style="fill:#263238;stroke:#263238;stroke-miterlimit:10"></circle><circle cx="468.45" cy="285.85" r="4.7" style="fill:#263238;stroke:#263238;stroke-miterlimit:10"></circle><rect x="273.41" y="248.25" width="213.23" height="4.7" style="fill:#ccc;stroke:#263238;stroke-miterlimit:10"></rect></g><g id="freepik--Bridge--inject-3"><path d="M62.58,409.43,67.41,397a105.87,105.87,0,0,1,197.35,0l4.83,12.44V301.79h-207Zm40.22-65.12a112.14,112.14,0,0,0-10.1,7.95V306.79h14.67v34.52C105.83,342.28,104.3,343.27,102.8,344.31Zm24.25-12.75a109.54,109.54,0,0,0-14.68,6.8V306.79h14.68Zm5-24.77h14.67v19.39a108,108,0,0,0-14.67,3.63Zm19.67,18.62V306.79h14.67v17.69h-.3A112.35,112.35,0,0,0,151.72,325.41Zm73.7,16.28a110.21,110.21,0,0,0-14.68-7.85v-27h14.68Zm-19.68-9.9a109.92,109.92,0,0,0-14.67-4.49V306.79h14.67Zm-19.67-5.51a113.5,113.5,0,0,0-14.68-1.67V306.79h14.68Zm44.35,18.79V306.79h14.67v50.78A111.39,111.39,0,0,0,230.42,345.07Zm34.17,39.39A110.5,110.5,0,0,0,250.09,363V306.79h14.5Zm-197-77.67H87.7V357a110.29,110.29,0,0,0-20.12,27.51Z" style="fill:#263238"></path><path d="M.25,301.79V339.1a105.5,105.5,0,0,1,16.29,9.32A105.7,105.7,0,0,1,54.79,397l4.83,12.44V301.79Zm15.2,39.9A110.21,110.21,0,0,0,.77,333.84v-27H15.45Zm19.67,15.88a111.39,111.39,0,0,0-14.67-12.5V306.79H35.12Zm19.5,26.89A110.5,110.5,0,0,0,40.12,363V306.79h14.5Z" style="fill:#263238"></path><path d="M273.05,409.43,277.88,397a105.87,105.87,0,0,1,197.35,0l4.83,12.44V301.79h-207Zm40.22-65.12a113.71,113.71,0,0,0-10.11,7.95V306.79h14.68v34.52C316.3,342.28,314.77,343.27,313.27,344.31Zm24.24-12.75a110,110,0,0,0-14.67,6.8V306.79h14.67Zm5-24.77h14.68v19.39a108.51,108.51,0,0,0-14.68,3.63Zm19.68,18.62V306.79h14.67v17.69h-.31A112.32,112.32,0,0,0,362.19,325.41Zm73.7,16.28a110.21,110.21,0,0,0-14.68-7.85v-27h14.68Zm-19.68-9.9a110.37,110.37,0,0,0-14.67-4.49V306.79h14.67Zm-19.67-5.51a113.9,113.9,0,0,0-14.68-1.67V306.79h14.68Zm44.35,18.79V306.79h14.67v50.78A112,112,0,0,0,440.89,345.07Zm34.17,39.39A110.5,110.5,0,0,0,460.56,363V306.79h14.5Zm-197-77.67h20.11V357a110.5,110.5,0,0,0-20.11,27.51Z" style="fill:#263238"></path><path d="M749.56,333.72c-3.2,1.4-6.34,2.93-9.41,4.64V306.79h9.41v-5h-266V409.43L488.35,397a105.86,105.86,0,0,1,197.34,0l4.67,12v.43l.08-.22.08.22V409l4.67-12a106,106,0,0,1,54.37-57.81ZM508.63,357a110.5,110.5,0,0,0-20.11,27.51V306.79h20.11Zm19.68-15.64c-1.54,1-3.07,2-4.58,3a115,115,0,0,0-10.1,7.95V306.79h14.68ZM548,331.56a109.42,109.42,0,0,0-14.67,6.8V306.79H548Zm19.68-5.38A108.51,108.51,0,0,0,553,329.81v-23h14.68Zm19.67-1.7H587a112.2,112.2,0,0,0-14.36.94V306.79h14.67Zm19.68,1.8a113.9,113.9,0,0,0-14.68-1.67V306.79H607Zm19.67,5.51A110.37,110.37,0,0,0,612,327.3V306.79h14.67Zm19.68,9.9a110.21,110.21,0,0,0-14.68-7.85v-27h14.68ZM666,357.57a112,112,0,0,0-14.67-12.5V306.79H666Zm19.49,26.89A110.45,110.45,0,0,0,671,363V306.79h14.49Zm30-27.51a110.5,110.5,0,0,0-20.11,27.51V306.79h20.11Zm19.68-15.64c-1.55,1-3.08,2-4.58,3a115,115,0,0,0-10.1,7.95V306.79h14.68Z" style="fill:#263238"></path><polygon points="76.43 343.66 50.81 343.66 45.32 307.79 81.92 307.79 76.43 343.66" style="fill:#fff;stroke:#263238;stroke-miterlimit:10"></polygon><polygon points="47.77 323.81 79.47 323.81 81.92 307.79 45.32 307.79 47.77 323.81" style="fill:#263238;stroke:#263238;stroke-miterlimit:10"></polygon><rect x="50.81" y="343.66" width="25.25" height="156.02" style="fill:#fff;stroke:#263238;stroke-miterlimit:10"></rect><rect x="44.98" y="343.66" width="36.91" height="18.06" style="fill:#fff;stroke:#263238;stroke-miterlimit:10"></rect><polygon points="286.48 343.66 260.87 343.66 255.38 307.79 291.97 307.79 286.48 343.66" style="fill:#fff;stroke:#263238;stroke-miterlimit:10"></polygon><polygon points="257.83 323.81 289.52 323.81 291.97 307.79 255.38 307.79 257.83 323.81" style="fill:#263238;stroke:#263238;stroke-miterlimit:10"></polygon><rect x="260.87" y="343.66" width="25.25" height="156.02" style="fill:#fff;stroke:#263238;stroke-miterlimit:10"></rect><rect x="255.04" y="343.66" width="36.91" height="18.06" style="fill:#fff;stroke:#263238;stroke-miterlimit:10"></rect><polygon points="496.54 343.66 470.92 343.66 465.43 307.79 502.03 307.79 496.54 343.66" style="fill:#fff;stroke:#263238;stroke-miterlimit:10"></polygon><polygon points="467.88 323.81 499.57 323.81 502.03 307.79 465.43 307.79 467.88 323.81" style="fill:#263238;stroke:#263238;stroke-miterlimit:10"></polygon><rect x="470.92" y="343.66" width="25.25" height="156.02" style="fill:#fff;stroke:#263238;stroke-miterlimit:10"></rect><rect x="465.09" y="343.66" width="36.91" height="18.06" style="fill:#fff;stroke:#263238;stroke-miterlimit:10"></rect><polygon points="706.59 343.66 680.98 343.66 675.49 307.79 712.08 307.79 706.59 343.66" style="fill:#fff;stroke:#263238;stroke-miterlimit:10"></polygon><polygon points="677.94 323.81 709.63 323.81 712.08 307.79 675.49 307.79 677.94 323.81" style="fill:#263238;stroke:#263238;stroke-miterlimit:10"></polygon><rect x="680.98" y="343.66" width="25.25" height="156.02" style="fill:#fff;stroke:#263238;stroke-miterlimit:10"></rect><rect x="675.15" y="343.66" width="36.91" height="18.06" style="fill:#fff;stroke:#263238;stroke-miterlimit:10"></rect><rect x="0.94" y="290.96" width="748.62" height="16.83" style="fill:#fff;stroke:#263238;stroke-miterlimit:10"></rect><rect x="0.94" y="290.96" width="748.62" height="3.07" style="fill:#263238;stroke:#263238;stroke-miterlimit:10"></rect></g></svg>
